<svg xmlns="http://www.w3.org/2000/svg" viewBox="0 0 178.67 157.04"><defs><style>.cls-1{fill:#cd1f46;}.cls-2{fill:#a41c38;}.cls-3{fill:#80132c;}.cls-4{fill:#e12a66;}</style></defs><title>Asset 2</title><g id="Layer_2" data-name="Layer 2"><g id="Logo_Layer" data-name="Logo Layer"><g id="logo_shape" data-name="logo shape"><polygon id="_1" data-name="1" class="cls-1" points="178.34 135.04 178.34 157.04 0.34 157.04 0.34 156.52 22.34 134.38 22.34 135.04 178.34 135.04"/><polygon id="_2" data-name="2" class="cls-2" points="22.34 22.66 22.34 134.38 0.34 156.52 0.34 0.51 22.34 22.66"/><polygon id="_3" data-name="3" class="cls-3" points="178.16 0.04 156.34 22.15 156.34 23.04 22.15 23.04 0 0.04 178.16 0.04"/><polygon id="_4" data-name="4" class="cls-4" points="178.34 0 178.34 123.07 156.34 100.92 156.34 22.15 178.34 0"/><polygon id="_5" data-name="5" class="cls-2" points="178.67 123.04 122.34 123.04 122.34 122.56 144.34 100.41 144.34 101.04 156.52 101.04 178.67 123.04"/><polygon id="_6" data-name="6" class="cls-1" points="144.34 100.41 144.34 56.11 144.34 34.04 122.56 34.04 100.41 34.04 78.26 34.04 56.11 34.04 34.34 34.04 34.34 56.11 34.34 123.04 56.34 123.04 56.34 57.04 78.34 57.04 78.34 123.04 100.34 123.04 100.34 57.04 122.34 57.04 122.34 100.41 122.34 122.56 144.34 100.41"/></g></g></g></svg>